<svg width="65.000000" height="20.000000" viewBox="0 0 65 20" fill="none" xmlns="http://www.w3.org/2000/svg" xmlns:xlink="http://www.w3.org/1999/xlink">
	<desc>
			Created with Pixso.
	</desc>
	<defs/>
	<path id="logo" d="M42.5652 8.45361Q42.8853 8.45361 43.0724 8.61137Q43.3353 8.83315 43.3353 9.36672C43.3353 9.85764 43.1916 10.3387 42.9041 10.81C42.6371 11.2617 42.2674 11.6348 41.7951 11.9293C41.3228 12.2239 40.8196 12.3711 40.2857 12.3711C39.7106 12.3711 38.9713 12.1649 38.0677 11.7526Q37.5132 15.7879 35.2337 17.9087Q34.4793 18.6103 33.6001 19.0765Q31.8585 20 29.6272 20C28.2307 20 26.978 19.6858 25.869 19.0574C24.7806 18.4094 23.9283 17.5552 23.3122 16.4948C22.6961 15.4345 22.3881 14.2857 22.3881 13.0486C22.3881 12.5184 22.4497 11.9882 22.5729 11.458Q22.7146 10.8596 22.9559 10.3045Q23.3441 9.4114 23.9899 8.63034Q24.7389 7.72467 25.6768 7.10515Q26.0506 6.85828 26.4543 6.65685Q27.7451 6.0129 29.0615 5.95554L29.0618 5.95552Q29.1904 5.94993 29.3192 5.94993C30.346 5.94993 31.188 6.22484 31.8452 6.77467C33.0773 5.45901 33.6935 4.31026 33.6935 3.32842C33.6935 2.95533 33.6318 2.6706 33.5086 2.47423Q33.3238 2.15022 32.9849 1.88513C32.8206 1.72803 32.6974 1.59058 32.6153 1.47275Q32.4921 1.29602 32.4921 0.972019Q32.4921 0.652866 32.6367 0.425928L32.6367 0.4259Q32.6923 0.338688 32.7693 0.265097C32.9541 0.0883656 33.1903 0 33.4778 0C33.9296 0 34.2993 0.196367 34.5868 0.589104C34.8743 0.981836 35.0181 1.50221 35.0181 2.15022Q35.0181 3.79971 33.7242 5.5081C32.8617 6.64703 31.8246 7.71723 30.613 8.7187Q28.7955 10.1915 26.0539 12.1649L24.2672 13.4904C24.4725 14.5508 24.8935 15.4934 25.5302 16.3181C26.1668 17.1232 26.9267 17.7516 27.8097 18.2032Q28.5976 18.5799 29.4271 18.7376Q30.0246 18.8512 30.6438 18.8512Q32.3242 18.8512 33.6614 18.1738Q34.555 17.7212 35.2953 16.9661C36.548 15.7094 37.3079 13.9028 37.5748 11.5464L36.9896 11.2518Q35.6958 10.6038 34.9256 10.3093C34.4122 10.0933 33.9193 9.98527 33.447 9.98527C33.1595 9.98527 32.9233 10.0442 32.7385 10.162C32.5742 10.2798 32.4921 10.4271 32.4921 10.6038C32.4921 10.8395 32.5742 11.1144 32.7385 11.4286C32.9028 11.782 32.9849 12.0373 32.9849 12.1944C32.9849 12.3711 32.9233 12.538 32.8001 12.6951C32.6769 12.8326 32.4921 12.9013 32.2456 12.9013C31.9992 12.9013 31.7938 12.8326 31.6295 12.6951Q31.4139 12.4595 31.4139 11.9588C31.4139 11.4482 31.5782 10.9573 31.9068 10.486C32.2559 10.0147 32.6974 9.64163 33.2314 9.36672Q33.9504 8.98474 34.6926 8.93299L34.6944 8.93287Q34.8097 8.92489 34.9256 8.92489C35.4391 8.92489 35.9627 9.03289 36.4967 9.2489C37.0512 9.44526 37.7289 9.73981 38.5298 10.1325C39.187 10.4664 39.7517 10.7315 40.2241 10.9278Q40.9326 11.1929 41.5179 11.1929C41.7848 11.1929 42.0005 11.1438 42.1648 11.0457Q42.3941 10.8995 42.4337 10.713Q42.442 10.674 42.442 10.6333C42.442 10.4566 42.3393 10.2307 42.1339 9.95582C42.0107 9.79873 41.9183 9.66127 41.8567 9.54345C41.7951 9.42562 41.7643 9.28817 41.7643 9.13107Q41.7643 8.84853 41.9036 8.68382Q42.0983 8.45361 42.5652 8.45361ZM63.4598 10.9573C62.4535 10.054 61.0878 9.50417 59.3627 9.30781C60.5744 8.8758 61.4985 8.27688 62.1352 7.51105C62.7923 6.74521 63.1209 5.89102 63.1209 4.94845Q63.1209 3.98344 62.7044 3.25739Q62.3199 2.5873 61.5807 2.12077C60.5538 1.47276 59.106 1.14875 57.2372 1.14875C56.9292 1.14875 56.5698 1.15857 56.159 1.1782C55.7483 1.19784 55.4402 1.21748 55.2349 1.23711C54.6188 1.29602 54.0232 1.32548 53.4482 1.32548C52.8937 1.32548 52.1441 1.30584 51.1995 1.26657L49.5668 1.23711C49.5257 1.23711 49.5052 1.29602 49.5052 1.41385C49.5052 1.53167 49.5257 1.59057 49.5668 1.59057C50.4499 1.59057 51.0352 1.72803 51.3227 2.00294C51.6102 2.25822 51.754 2.79823 51.754 3.62297L51.754 17.2607C51.754 17.8301 51.6821 18.2622 51.5383 18.5567C51.4151 18.8316 51.1995 19.028 50.8914 19.1458C50.5834 19.244 50.1316 19.2931 49.536 19.2931C49.4744 19.2931 49.4436 19.352 49.4436 19.4698C49.4436 19.5876 49.4744 19.6465 49.536 19.6465C50.2343 19.6465 50.7887 19.6367 51.1995 19.6171L53.4482 19.5876C53.9616 19.5876 54.4237 19.5974 54.8344 19.6171C55.2657 19.6367 55.6251 19.6564 55.9126 19.676C56.6519 19.7349 57.3091 19.7644 57.8841 19.7644C59.219 19.7644 60.4306 19.5287 61.5191 19.0574C62.6075 18.5665 63.4597 17.9087 64.0759 17.0839C64.692 16.2592 65 15.3363 65 14.3152Q65 13.3841 64.6672 12.5931Q64.2841 11.6824 63.4598 10.9573ZM13.7389 5.41973C13.7389 5.45901 13.6773 5.48846 13.5541 5.5081C13.4514 5.52774 13.3898 5.5081 13.3693 5.44919Q12.902 3.82968 11.8258 3.00427Q11.7667 2.95897 11.7058 2.91605Q10.5352 2.09131 8.62534 2.09131L7.70119 2.09131Q6.77705 2.09131 6.34579 2.47423Q6.3118 2.5044 6.28049 2.53713L6.28043 2.53721Q5.91452 2.91988 5.91452 3.65243L5.91452 10.0147L8.13246 10.0147Q9.91914 10.0147 10.8433 9.42563C11.4799 9.01326 11.7982 8.45361 11.7982 7.74669C11.7982 7.70741 11.8598 7.68778 11.9831 7.68778C12.1063 7.68778 12.1679 7.70741 12.1679 7.74669L12.1371 10.4271Q12.1371 11.3697 12.1679 11.8409L12.1987 13.4021C12.1987 13.461 12.1371 13.4904 12.0139 13.4904C11.8906 13.4904 11.829 13.461 11.829 13.4021Q11.829 12.8335 11.5994 12.3815Q11.3533 11.8969 10.8433 11.5464Q9.88834 10.8395 8.10165 10.8395L5.91452 10.8395L5.91452 17.1429C5.91452 17.7516 5.99667 18.2032 6.16096 18.4978C6.32525 18.7923 6.63329 18.9985 7.0851 19.1163C7.5369 19.2342 8.24541 19.2931 9.21062 19.2931Q9.2173 19.2931 9.22326 19.2952Q9.27224 19.3122 9.27224 19.4698C9.27224 19.5876 9.2517 19.6465 9.21062 19.6465Q7.94763 19.6465 7.23912 19.6171L4.09704 19.5876L1.78667 19.6171Q1.17058 19.6465 0.0924149 19.6465C0.0308075 19.6465 0 19.5876 0 19.4698Q0 19.331 0.0569916 19.3012Q0.0725708 19.2931 0.0924149 19.2931C0.811195 19.2931 1.33488 19.244 1.66346 19.1458C1.99204 19.0476 2.20767 18.8611 2.31036 18.5862Q2.49519 18.1443 2.49519 17.2607L2.49519 3.62297Q2.49519 2.73932 2.34116 2.32695Q2.28346 2.17248 2.18254 2.0552Q2.01405 1.85941 1.72507 1.76731Q1.26299 1.59057 0.308044 1.59057Q0.288208 1.59057 0.272621 1.58243Q0.215637 1.55263 0.215637 1.41385Q0.215637 1.27506 0.272621 1.24526Q0.2882 1.23711 0.308044 1.23711L13.3693 1.23711Q13.5463 1.23711 13.6216 1.32462Q13.6773 1.38942 13.6773 1.50221L13.7389 5.41973ZM55.5429 2.20913C55.7688 1.93422 56.1796 1.79676 56.7751 1.79676Q57.9207 1.79676 58.6419 2.34994Q58.8323 2.49592 58.9931 2.68041Q59.7632 3.53461 59.7632 5.21355C59.7632 6.41139 59.4757 7.39323 58.9007 8.15906Q58.5855 8.57883 58.1716 8.84521Q57.4528 9.30781 56.4363 9.30781L55.2041 9.27835L55.2041 3.68188C55.2041 2.95533 55.317 2.46441 55.5429 2.20913ZM24.2672 10.5155Q24.1132 11.458 24.1132 12.106Q24.1132 12.43 24.1748 13.0191C24.7293 12.5871 25.3043 12.1551 25.8998 11.7231Q28.7031 9.66127 30.2741 8.30633C29.7607 7.26559 28.9187 6.74521 27.7481 6.74521C26.9472 6.74521 26.2284 7.10849 25.5918 7.83505C24.9757 8.54197 24.5342 9.43544 24.2672 10.5155ZM60.4018 18.0117Q59.3929 19.028 57.3604 19.028C56.4568 19.028 55.8715 18.9003 55.6046 18.6451C55.3376 18.3702 55.2041 17.9087 55.2041 17.2607L55.2041 10.162C55.6764 10.1227 56.2104 10.1031 56.8059 10.1031C58.3462 10.1031 59.4962 10.5449 60.2561 11.4286C61.0159 12.3122 61.3958 13.5101 61.3958 15.0221Q61.3958 17.0103 60.4018 18.0117Z" fill="#FFFFFF" fill-opacity="1.000000" fill-rule="evenodd"/>
</svg>
